<svg fill="#000000" version="1.1" id="Capa_1" xmlns="http://www.w3.org/2000/svg" xmlns:xlink="http://www.w3.org/1999/xlink" viewBox="0 0 80.286 80.286" xml:space="preserve">
  <g id="SVGRepo_iconCarrier"> <g> <g>  <path d="M40.143,11.327c-15.89,0-28.816,12.927-28.816,28.815c0,15.891,12.927,28.816,28.816,28.816s28.816-12.926,28.816-28.816 C68.959,24.254,56.033,11.327,40.143,11.327z M40.143,65.693c-14.089,0-25.551-11.461-25.551-25.551 c0-14.088,11.462-25.55,25.551-25.55c14.089,0,25.55,11.462,25.55,25.55C65.693,54.232,54.232,65.693,40.143,65.693z">
</path> <path d="M40.143,29.827c-5.688,0-10.316,4.628-10.316,10.315c0,5.688,4.628,10.316,10.316,10.316s10.316-4.628,10.316-10.316 C50.459,34.455,45.831,29.827,40.143,29.827z">
</path> </g> </g> </g>
</svg>